<svg width="121" height="80" viewBox="0 0 121 80" fill="none" xmlns="http://www.w3.org/2000/svg">
<path d="M96.9478 40.096C96.9478 60.0312 80.7871 76.1919 60.8518 76.1919C40.9166 76.1919 24.7559 60.0312 24.7559 40.096C24.7559 20.1607 40.9166 4 60.8518 4C80.7871 4 96.9478 20.1607 96.9478 40.096Z" fill="#0054A6"/>
<path fill-rule="evenodd" clip-rule="evenodd" d="M60.8518 74.5697C79.8911 74.5697 95.3255 59.1353 95.3255 40.096C95.3255 21.0567 79.8911 5.62229 60.8518 5.62229C41.8125 5.62229 26.3782 21.0567 26.3782 40.096C26.3782 59.1353 41.8125 74.5697 60.8518 74.5697ZM60.8518 76.1919C80.7871 76.1919 96.9478 60.0312 96.9478 40.096C96.9478 20.1607 80.7871 4 60.8518 4C40.9166 4 24.7559 20.1607 24.7559 40.096C24.7559 60.0312 40.9166 76.1919 60.8518 76.1919Z" fill="white"/>
<path d="M44.608 28.3649L4 50.0224L38.7424 39.1936L76.1919 52.2784L117.251 30.6209L82.0575 41.9008L44.608 28.3649Z" fill="white" stroke="#0054A6" stroke-width="0.811145" stroke-linejoin="round"/>
</svg>
